<?xml version="1.0" standalone="no"?>
<!DOCTYPE svg PUBLIC "-//W3C//DTD SVG 20010904//EN"
 "http://www.w3.org/TR/2001/REC-SVG-20010904/DTD/svg10.dtd">
<svg version="1.0" xmlns="http://www.w3.org/2000/svg"
 width="800.000000pt" height="800.000000pt" viewBox="0 0 800.000000 800.000000"
 preserveAspectRatio="xMidYMid meet">
<metadata>
Created by potrace 1.11, written by Peter Selinger 2001-2013
</metadata>
<g transform="translate(0.000000,800.000000) scale(0.100000,-0.100000)"
fill="#000000" stroke="none">
<path d="M6868 6550 c-126 -151 -246 -295 -267 -320 -49 -57 -202 -240 -218
-260 -20 -25 -493 -593 -516 -620 -12 -14 -87 -104 -167 -200 -79 -96 -147
-177 -150 -180 -4 -3 -59 -70 -125 -150 -65 -80 -123 -149 -129 -155 -6 -5
-40 -46 -76 -90 -35 -44 -67 -82 -70 -85 -3 -3 -25 -30 -50 -60 -25 -30 -57
-68 -71 -85 -15 -16 -53 -62 -85 -101 -33 -39 -75 -91 -95 -115 -44 -53 -663
-796 -687 -824 -10 -11 -55 -65 -101 -120 -45 -55 -90 -109 -100 -120 -9 -11
-95 -114 -191 -230 -96 -115 -183 -219 -192 -230 -9 -11 -80 -96 -158 -190
-78 -93 -159 -190 -180 -215 -21 -25 -65 -77 -98 -117 l-60 -72 -53 46 c-30
25 -81 69 -114 98 -33 29 -184 160 -335 290 -151 130 -300 259 -330 285 -30
26 -94 81 -141 121 -164 141 -364 314 -394 341 -16 14 -68 59 -115 99 -97 82
-197 169 -214 184 -14 13 -166 145 -189 165 -10 8 -28 23 -40 33 -12 10 -38
33 -57 50 l-35 32 -532 0 c-293 0 -529 -3 -525 -6 4 -4 28 -24 53 -45 108 -91
152 -129 163 -138 6 -6 52 -44 101 -85 50 -41 97 -82 106 -90 8 -9 35 -32 59
-51 24 -19 48 -40 54 -45 6 -6 81 -69 166 -140 85 -72 161 -135 168 -142 7 -7
94 -81 194 -165 100 -84 247 -209 327 -277 80 -68 171 -144 200 -170 30 -25
73 -62 96 -81 23 -19 63 -53 89 -75 27 -22 54 -45 60 -50 6 -6 85 -73 176
-150 91 -76 199 -168 240 -203 41 -35 95 -81 120 -102 25 -21 142 -120 260
-221 118 -100 239 -202 268 -228 102 -88 165 -115 261 -112 49 1 151 35 151
50 0 3 13 20 28 36 16 17 68 77 116 135 48 58 95 114 104 125 9 11 96 115 192
230 96 116 177 212 180 215 3 3 24 27 45 55 22 27 52 63 67 80 22 25 162 191
226 270 39 47 121 145 177 211 87 102 88 104 277 331 95 115 175 210 178 213
3 3 35 41 70 85 36 44 68 82 71 85 3 3 52 61 110 130 57 69 106 127 109 130 3
3 48 57 100 120 51 63 96 117 100 120 3 3 51 59 106 125 55 66 109 131 121
145 12 14 137 165 279 335 142 171 263 315 269 321 5 6 26 30 45 54 19 24 40
48 45 54 6 6 91 108 190 226 99 118 187 224 197 235 9 11 69 83 133 160 65 77
127 151 139 165 11 14 100 120 196 235 96 116 177 212 180 215 3 3 61 73 130
155 69 83 207 248 308 368 101 120 181 221 178 225 -4 3 -205 6 -448 6 l-440
1 -230 -275z"/>
</g>
</svg>
